<svg xmlns="http://www.w3.org/2000/svg" width="24" height="24" viewBox="0 0 24 24" fill="none" stroke="currentColor" strokeWidth="2" strokeLinecap="round" strokeLinejoin="round"><path d="M9 19c-5 1.5-5-2.5-7-3m14 6v-3.87a3.37 3.37 0 0 0-.94-2.61c3.14-.35 6.44-1.54 6.44-7A5.44 5.44 0 0 0 20 4.77 5.07 5.07 0 0 0 19.91 3c0-.52-.15-1.03-.57-1.47a2.71 2.71 0 0 0-1.92-.72C15.42 1.34 14 2.5 13 3.5c-1 .92-2 1.6-3 1.6S8 4.42 7 3.5C6 2.5 4.58 1.34 3.5 1.34A2.71 2.71 0 0 0 1.58 2.03c-.42.44-.57.95-.57 1.47a5.07 5.07 0 0 0-.09 1.77A5.44 5.44 0 0 0 2 10.22c0 5.46 3.3 6.65 6.44 7A3.37 3.37 0 0 0 9 19.13V22"/></svg> 