<svg xmlns="http://www.w3.org/2000/svg" width="24" height="24" viewBox="0 0 24 24" fill="none" stroke="currentColor" strokeWidth="2" strokeLinecap="round" strokeLinejoin="round"><path d="M12 2C6.477 2 2 6.477 2 12c0 4.418 2.864 8.164 6.839 9.48.5.092.682-.217.682-.483 0-.237-.009-.868-.014-1.703-2.782.604-3.37-1.34-3.37-1.34-.454-1.156-1.11-1.464-1.11-1.464-.908-.62.069-.608.069-.608 1.003.07 1.531 1.032 1.531 1.032.892 1.529 2.342 1.085 2.91.829.092-.644.35-1.085.636-1.334-2.22-.253-4.555-1.116-4.555-4.949 0-1.092.39-1.984 1.029-2.68a3.57 3.57 0 0 1 .1-2.642s.837-.268 2.75 1.025c.797-.223 1.654-.334 2.5-.338 0 0 1.703 0 2.5.338 1.913-1.293 2.75-1.025 2.75-1.025.034.613.268 1.493.1 2.642.64.696 1.029 1.588 1.029 2.68 0 3.841-2.339 4.693-4.566 4.94.359.309.678.916.678 1.846 0 1.334-.012 2.41-.012 2.73 0 .267.18.577.688.48C21.136 20.161 24 16.418 24 12c0-5.523-4.477-10-10-10z"/></svg> 