<svg xmlns="http://www.w3.org/2000/svg" width="24" height="24" viewBox="0 0 24 24" fill="none" stroke="currentColor" strokeWidth="2" strokeLinecap="round" strokeLinejoin="round"><path d="M12 2c3.313 0 6 2.687 6 6 0 2.21-1.39 4.103-3.32 5.09A7.99 7.99 0 0 1 12 22a8 8 0 0 1-5.32-2.91C6.39 12.103 5 10.21 5 8c0-3.313 2.687-6 6-6zm0 2a4 4 0 0 0-4 4c0 1.657 1.343 3 3 3h2c1.657 0 3-1.343 3-3a4 4 0 0 0-4-4z"/><path d="M16 16c-.552 0-1 .448-1 1s.448 1 1 1 1-.448 1-1-.448-1-1-1zM8 16c-.552 0-1 .448-1 1s.448 1 1 1 1-.448 1-1-.448-1-1-1z"/></svg> 